<?xml version="1.0" standalone="no"?>
<!DOCTYPE svg PUBLIC "-//W3C//DTD SVG 20010904//EN"
 "http://www.w3.org/TR/2001/REC-SVG-20010904/DTD/svg10.dtd">
<svg version="1.0" xmlns="http://www.w3.org/2000/svg"
 width="515.000000pt" height="515.000000pt" viewBox="0 0 515.000000 515.000000"
 preserveAspectRatio="xMidYMid meet">
<metadata>
Created by potrace 1.14, written by Peter Selinger 2001-2017
</metadata>
<g transform="translate(0.000000,515.000000) scale(0.100000,-0.100000)"
fill="#000000" stroke="none">
<path d="M2381 5124 c-238 -40 -462 -156 -636 -329 -195 -194 -311 -431 -345
-705 -5 -46 -10 -85 -10 -86 0 -1 -156 -91 -346 -200 -381 -219 -421 -250
-477 -363 l-32 -66 -5 -416 -5 -416 -75 -60 c-139 -110 -244 -240 -323 -398
-338 -678 33 -1487 770 -1676 230 -58 500 -42 713 44 l60 25 338 -195 c185
-107 355 -204 377 -215 120 -62 260 -62 380 0 22 11 192 108 378 215 l337 195
60 -24 c32 -14 94 -33 137 -44 538 -135 1097 121 1347 618 250 497 115 1104
-324 1455 l-75 60 -5 416 -5 416 -32 66 c-56 113 -96 144 -477 363 -190 110
-346 200 -346 200 0 1 -5 40 -10 86 -34 274 -150 511 -345 705 -269 268 -652
391 -1024 329z m414 -434 c206 -65 372 -206 464 -394 62 -127 76 -189 76 -355
l0 -144 185 -107 c102 -59 277 -160 390 -224 221 -127 248 -147 288 -216 l27
-45 3 -463 3 -462 62 -31 c224 -113 373 -303 424 -542 23 -109 13 -279 -21
-382 -73 -217 -232 -391 -434 -474 -37 -15 -92 -34 -122 -42 -79 -20 -278 -18
-360 4 -62 17 -196 77 -251 113 l-27 17 -402 -233 c-222 -128 -419 -239 -439
-246 -46 -17 -126 -17 -172 0 -20 7 -217 118 -439 246 l-402 233 -27 -17 c-55
-36 -189 -96 -251 -113 -47 -13 -101 -18 -195 -17 -120 0 -138 3 -225 33 -152
52 -262 126 -355 238 -111 135 -164 275 -172 453 -14 318 145 584 435 729 l62
31 0 453 c0 418 2 455 19 493 35 76 75 109 294 235 117 67 295 170 397 229
l185 107 -3 114 c-8 243 67 432 232 594 105 102 226 168 370 201 92 21 291 12
381 -16z"/>
<path d="M2455 4285 c-93 -35 -188 -138 -215 -235 -17 -60 -12 -154 12 -217
27 -73 102 -154 177 -190 49 -24 68 -28 146 -28 78 0 97 4 147 28 74 36 150
119 178 195 33 87 25 195 -20 280 -37 70 -89 120 -159 154 -58 29 -204 36
-266 13z"/>
<path d="M1746 3200 c-171 -99 -320 -189 -332 -201 -42 -40 -44 -59 -42 -387
l3 -313 67 -23 c122 -43 245 -129 327 -228 61 -74 134 -216 158 -308 25 -95
23 -292 -5 -385 -11 -38 -20 -71 -18 -72 1 -1 143 -83 316 -183 266 -152 321
-180 355 -180 34 0 89 28 355 180 173 100 315 182 316 183 2 1 -7 34 -18 72
-28 93 -30 290 -5 385 24 91 97 233 156 306 80 98 207 187 329 230 l67 23 3
313 c2 333 1 347 -46 390 -26 23 -632 378 -646 378 -4 0 -30 -18 -59 -39 -71
-53 -161 -96 -254 -123 -110 -31 -286 -31 -396 0 -91 26 -195 76 -260 126 -26
20 -51 36 -55 36 -4 0 -146 -82 -316 -180z m1470 -406 c82 -47 157 -94 167
-106 9 -11 17 -36 17 -57 0 -34 -4 -39 -68 -78 -355 -220 -577 -656 -546
-1073 l6 -85 -91 -52 c-49 -29 -101 -53 -113 -53 -13 0 -68 27 -123 58 l-100
58 2 65 c5 193 -33 403 -101 558 -91 208 -260 407 -438 518 -52 32 -58 39 -58
69 0 62 16 77 173 169 l152 88 75 -26 c177 -62 344 -83 510 -67 112 11 265 48
333 79 23 11 45 20 48 20 3 1 73 -37 155 -85z"/>
<path d="M1074 1886 c-96 -31 -188 -122 -219 -217 -24 -72 -17 -198 15 -264
33 -67 98 -131 168 -163 49 -23 70 -27 147 -27 78 0 97 4 146 28 67 32 142
109 172 175 33 72 31 207 -4 282 -33 69 -93 131 -161 166 -43 22 -69 28 -138
31 -52 2 -101 -2 -126 -11z"/>
<path d="M3870 1891 c-96 -31 -177 -102 -219 -191 -35 -75 -37 -210 -4 -282
30 -66 105 -143 172 -175 49 -24 68 -28 146 -28 72 0 100 5 139 23 75 34 129
84 167 154 32 60 34 68 34 163 0 118 -20 171 -95 245 -68 69 -127 94 -230 97
-47 1 -96 -1 -110 -6z"/>
</g>
</svg>
